<?xml version="1.0" encoding="UTF-8"?>
<svg width="131.85mm" height="19.61mm" version="1.1" viewBox="0 0 131.85 19.61" xmlns="http://www.w3.org/2000/svg" xmlns:cc="http://creativecommons.org/ns#" xmlns:dc="http://purl.org/dc/elements/1.1/" xmlns:rdf="http://www.w3.org/1999/02/22-rdf-syntax-ns#">
 <metadata>
  <rdf:RDF>
   <cc:Work rdf:about="">
    <dc:format>image/svg+xml</dc:format>
    <dc:type rdf:resource="http://purl.org/dc/dcmitype/StillImage"/>
    <dc:title/>
   </cc:Work>
  </rdf:RDF>
 </metadata>
 <g aria-label="easyranking">
  <path d="m0 19.61v-14.111h10.583v3.5278h-6.1736v1.7639h6.1736v3.5278h-6.1736v1.7639h6.1736v3.5278z"/>
  <path d="m18.08 12.555v-3.9687h-1.7639v3.9687zm-6.1736 7.0555v-14.111h10.583v14.111h-4.4097v-3.9687h-1.7639v3.9687z"/>
  <path d="m23.812 19.61v-3.5278h6.6145v-1.7639h-6.6145v-8.8194h11.024v3.5278h-6.6145v1.7639h6.6145v8.8194z"/>
  <path d="m40.569 19.61v-5.2916h-1.3229v-1.3229h-1.3229v-1.3229h-1.7639v-6.1736h4.4097v3.5278h1.3229v1.3229h1.7639v-1.3229h1.3229v-3.5278h4.4097v6.1736h-1.7639v1.3229h-1.3229v1.3229h-1.3229v5.2916z"/>
  <path d="m56.885 10.791v-1.7639h-1.7639v1.7639zm-6.1736 8.8194v-14.111h10.583v7.9374h-1.3229v0.88194h1.3229v5.2916h-4.4097v-5.2916h-1.7639v5.2916z"/>
  <path d="m68.791 12.555v-3.9687h-1.7639v3.9687zm-6.1736 7.0555v-14.111h10.583v14.111h-4.4097v-3.9687h-1.7639v3.9687z"/>
  <path d="m74.524 19.61v-14.111h4.4097v1.7639h1.3229v1.3229h1.3229v1.7639h0.88194v-4.8507h4.4097v14.111h-4.4097v-1.7639h-1.3229v-1.3229h-1.3229v-1.7639h-0.88194v4.8507z"/>
  <path d="m88.194 19.61v-14.111h4.4097v3.0868h0.88194v-1.3229h1.3229v-1.7639h4.4097v4.8507h-1.7639v1.3229h-1.3229v1.7639h1.3229v1.3229h1.7639v4.8507h-4.4097v-1.7639h-1.3229v-1.3229h-0.88194v3.0868z"/>
  <path d="m100.54 19.61v-14.111h4.4097v14.111z"/>
  <path d="m106.27 19.61v-14.111h4.4097v1.7639h1.3229v1.3229h1.3229v1.7639h0.88194v-4.8507h4.4097v14.111h-4.4097v-1.7639h-1.3229v-1.3229h-1.3229v-1.7639h-0.88193v4.8507z"/>
  <path d="m121.27 19.61v-1.3229h-1.3229v-11.465h1.3229v-1.3229h10.583v3.5278h-7.4965v7.0555h3.9687v-1.7639h-2.2048v-3.5278h5.7326v8.8194z"/>
 </g>
 <g stroke-width=".26458" aria-label="easyranking">
  <g fill="#00a929">
   <path d="m0 18.11v-14.111h10.583v3.5278h-6.1736v1.7639h6.1736v3.5277h-6.1736v1.7639h6.1736v3.5278z"/>
   <path d="m18.08 11.055v-3.9687h-1.7639v3.9687zm-6.1736 7.0555v-14.111h10.583v14.111h-4.4097v-3.9687h-1.7639v3.9687z"/>
   <path d="m23.812 18.11v-3.5278h6.6145v-1.7639h-6.6145v-8.8194h11.024v3.5278h-6.6145v1.7639h6.6145v8.8194z"/>
   <path d="m40.569 18.11v-5.2916h-1.3229v-1.3229h-1.3229v-1.3229h-1.7639v-6.1736h4.4097v3.5278h1.3229v1.3229h1.7639v-1.3229h1.3229v-3.5278h4.4097v6.1736h-1.7639v1.3229h-1.3229v1.3229h-1.3229v5.2916z"/>
  </g>
  <g fill="#44ff65">
   <path d="m56.885 9.2911v-1.7639h-1.7639v1.7639zm-6.1736 8.8194v-14.111h10.583v7.9374h-1.3229v0.88194h1.3229v5.2916h-4.4097v-5.2916h-1.7639v5.2916z"/>
   <path d="m68.791 11.055v-3.9687h-1.7639v3.9687zm-6.1736 7.0555v-14.111h10.583v14.111h-4.4097v-3.9687h-1.7639v3.9687z"/>
   <path d="m74.524 18.11v-14.111h4.4097v1.7639h1.3229v1.3229h1.3229v1.7639h0.88194v-4.8507h4.4097v14.111h-4.4097v-1.7639h-1.3229v-1.3229h-1.3229v-1.7639h-0.88194v4.8507z"/>
   <path d="m88.194 18.11v-14.111h4.4097v3.0868h0.88194v-1.3229h1.3229v-1.7639h4.4097v4.8507h-1.7639v1.3229h-1.3229v1.7639h1.3229v1.3229h1.7639v4.8507h-4.4097v-1.7639h-1.3229v-1.3229h-0.88194v3.0868z"/>
   <path d="m100.54 18.11v-14.111h4.4097v14.111z"/>
   <path d="m106.27 18.11v-14.111h4.4097v1.7639h1.3229v1.3229h1.3229v1.7639h0.88194v-4.8507h4.4097v14.111h-4.4097v-1.7639h-1.3229v-1.3229h-1.3229v-1.7639h-0.88193v4.8507z"/>
   <path d="m121.27 18.11v-1.3229h-1.3229v-11.465h1.3229v-1.3229h10.583v3.5278h-7.4965v7.0555h3.9687v-1.7639h-2.2048v-3.5277h5.7326v8.8194z"/>
  </g>
 </g>
 <path d="m 100.54,2.873 h 4.42 V 0 L 103.855,1.4365 102.75,0 101.645,1.4365 100.54,0 Z" fill="#ffc544"/>
</svg>
